<?xml version="1.0" encoding="UTF-8" standalone="no"?>
<svg
   xmlns:dc="http://purl.org/dc/elements/1.1/"
   xmlns:cc="http://creativecommons.org/ns#"
   xmlns:rdf="http://www.w3.org/1999/02/22-rdf-syntax-ns#"
   xmlns:svg="http://www.w3.org/2000/svg"
   xmlns="http://www.w3.org/2000/svg"
   xmlns:sodipodi="http://sodipodi.sourceforge.net/DTD/sodipodi-0.dtd"
   xmlns:inkscape="http://www.inkscape.org/namespaces/inkscape"
   width="150"
   height="275"
   viewBox="0 0 39.687499 72.760418"
   version="1.1"
   id="svg1033"
   inkscape:version="1.0.1 (1.0.1+r75)"
   sodipodi:docname="mplab-snap.svg"
   inkscape:export-filename="/home/nav/Projects/Bloom/src/Insight/UserInterfaces/InsightWindow/Images/mplab-snap-191-350.png"
   inkscape:export-xdpi="122.18182"
   inkscape:export-ydpi="122.18182">
  <defs
     id="defs1027" />
  <sodipodi:namedview
     id="base"
     pagecolor="#373835"
     bordercolor="#666666"
     borderopacity="1.0"
     inkscape:pageopacity="0"
     inkscape:pageshadow="2"
     inkscape:zoom="1.4142136"
     inkscape:cx="114.2249"
     inkscape:cy="134.00403"
     inkscape:document-units="px"
     inkscape:current-layer="layer1"
     inkscape:document-rotation="0"
     showgrid="false"
     units="px"
     inkscape:window-width="3440"
     inkscape:window-height="1353"
     inkscape:window-x="2560"
     inkscape:window-y="34"
     inkscape:window-maximized="1"
     inkscape:snap-bbox="true"
     inkscape:bbox-paths="true"
     inkscape:bbox-nodes="true"
     inkscape:snap-bbox-edge-midpoints="true"
     inkscape:snap-bbox-midpoints="true" />
  <metadata
     id="metadata1030">
    <rdf:RDF>
      <cc:Work
         rdf:about="">
        <dc:format>image/svg+xml</dc:format>
        <dc:type
           rdf:resource="http://purl.org/dc/dcmitype/StillImage" />
        <dc:title></dc:title>
      </cc:Work>
    </rdf:RDF>
  </metadata>
  <g
     inkscape:label="Board"
     inkscape:groupmode="layer"
     id="layer1"
     style="display:inline">
    <path
       id="rect1596"
       style="fill:#bbb9b9;fill-opacity:1;stroke:none;stroke-width:0.979;stroke-miterlimit:4;stroke-dasharray:none;stroke-opacity:1"
       d="M 4.9902344 15.990234 L 4.9902344 241.00977 L 145.00977 241.00977 L 145.00977 15.990234 L 4.9902344 15.990234 z M 19.951172 46 A 1.9999999 1.9999999 0 0 1 20 46 A 1.9999999 1.9999999 0 0 1 22 48 A 1.9999999 1.9999999 0 0 1 20 50 A 1.9999999 1.9999999 0 0 1 18 48 A 1.9999999 1.9999999 0 0 1 19.951172 46 z M 49.951172 46 A 1.9999999 1.9999999 0 0 1 50 46 A 1.9999999 1.9999999 0 0 1 52 48 A 1.9999999 1.9999999 0 0 1 50 50 A 1.9999999 1.9999999 0 0 1 48 48 A 1.9999999 1.9999999 0 0 1 49.951172 46 z M 137.70117 63 A 1.9999999 1.9999999 0 0 1 137.75 63 A 1.9999999 1.9999999 0 0 1 139.75 65 A 1.9999999 1.9999999 0 0 1 137.75 67 A 1.9999999 1.9999999 0 0 1 135.75 65 A 1.9999999 1.9999999 0 0 1 137.70117 63 z M 13.685547 67.865234 A 1.9999999 1.9999999 0 0 1 13.736328 67.865234 A 1.9999999 1.9999999 0 0 1 15.736328 69.865234 A 1.9999999 1.9999999 0 0 1 13.736328 71.865234 A 1.9999999 1.9999999 0 0 1 11.736328 69.865234 A 1.9999999 1.9999999 0 0 1 13.685547 67.865234 z M 137.70117 71 A 1.9999999 1.9999999 0 0 1 137.75 71 A 1.9999999 1.9999999 0 0 1 139.75 73 A 1.9999999 1.9999999 0 0 1 137.75 75 A 1.9999999 1.9999999 0 0 1 135.75 73 A 1.9999999 1.9999999 0 0 1 137.70117 71 z M 137.89258 80.25 A 1.9999999 1.9999999 0 0 1 137.94141 80.25 A 1.9999999 1.9999999 0 0 1 139.94141 82.25 A 1.9999999 1.9999999 0 0 1 137.94141 84.25 A 1.9999999 1.9999999 0 0 1 135.94141 82.25 A 1.9999999 1.9999999 0 0 1 137.89258 80.25 z M 137.89258 87.25 A 1.9999999 1.9999999 0 0 1 137.94141 87.25 A 1.9999999 1.9999999 0 0 1 139.94141 89.25 A 1.9999999 1.9999999 0 0 1 137.94141 91.25 A 1.9999999 1.9999999 0 0 1 135.94141 89.25 A 1.9999999 1.9999999 0 0 1 137.89258 87.25 z M 137.89258 94.25 A 1.9999999 1.9999999 0 0 1 137.94141 94.25 A 1.9999999 1.9999999 0 0 1 139.94141 96.25 A 1.9999999 1.9999999 0 0 1 137.94141 98.25 A 1.9999999 1.9999999 0 0 1 135.94141 96.25 A 1.9999999 1.9999999 0 0 1 137.89258 94.25 z M 137.89258 101.25 A 1.9999999 1.9999999 0 0 1 137.94141 101.25 A 1.9999999 1.9999999 0 0 1 139.94141 103.25 A 1.9999999 1.9999999 0 0 1 137.94141 105.25 A 1.9999999 1.9999999 0 0 1 135.94141 103.25 A 1.9999999 1.9999999 0 0 1 137.89258 101.25 z M 137.70117 108.25 A 1.9999999 1.9999999 0 0 1 137.75 108.25 A 1.9999999 1.9999999 0 0 1 139.75 110.25 A 1.9999999 1.9999999 0 0 1 137.75 112.25 A 1.9999999 1.9999999 0 0 1 135.75 110.25 A 1.9999999 1.9999999 0 0 1 137.70117 108.25 z M 137.70117 115.25 A 1.9999999 1.9999999 0 0 1 137.75 115.25 A 1.9999999 1.9999999 0 0 1 139.75 117.25 A 1.9999999 1.9999999 0 0 1 137.75 119.25 A 1.9999999 1.9999999 0 0 1 135.75 117.25 A 1.9999999 1.9999999 0 0 1 137.70117 115.25 z M 137.70117 122.25 A 1.9999999 1.9999999 0 0 1 137.75 122.25 A 1.9999999 1.9999999 0 0 1 139.75 124.25 A 1.9999999 1.9999999 0 0 1 137.75 126.25 A 1.9999999 1.9999999 0 0 1 135.75 124.25 A 1.9999999 1.9999999 0 0 1 137.70117 122.25 z M 137.70117 129.25 A 1.9999999 1.9999999 0 0 1 137.75 129.25 A 1.9999999 1.9999999 0 0 1 139.75 131.25 A 1.9999999 1.9999999 0 0 1 137.75 133.25 A 1.9999999 1.9999999 0 0 1 135.75 131.25 A 1.9999999 1.9999999 0 0 1 137.70117 129.25 z M 137.70117 139 A 1.9999999 1.9999999 0 0 1 137.75 139 A 1.9999999 1.9999999 0 0 1 139.75 141 A 1.9999999 1.9999999 0 0 1 137.75 143 A 1.9999999 1.9999999 0 0 1 135.75 141 A 1.9999999 1.9999999 0 0 1 137.70117 139 z M 137.70117 147 A 1.9999999 1.9999999 0 0 1 137.75 147 A 1.9999999 1.9999999 0 0 1 139.75 149 A 1.9999999 1.9999999 0 0 1 137.75 151 A 1.9999999 1.9999999 0 0 1 135.75 149 A 1.9999999 1.9999999 0 0 1 137.70117 147 z M 99.951172 182 A 1.9999999 1.9999999 0 0 1 100 182 A 1.9999999 1.9999999 0 0 1 102 184 A 1.9999999 1.9999999 0 0 1 100 186 A 1.9999999 1.9999999 0 0 1 98 184 A 1.9999999 1.9999999 0 0 1 99.951172 182 z M 106.95117 182 A 1.9999999 1.9999999 0 0 1 107 182 A 1.9999999 1.9999999 0 0 1 109 184 A 1.9999999 1.9999999 0 0 1 107 186 A 1.9999999 1.9999999 0 0 1 105 184 A 1.9999999 1.9999999 0 0 1 106.95117 182 z M 113.95117 182 A 1.9999999 1.9999999 0 0 1 114 182 A 1.9999999 1.9999999 0 0 1 116 184 A 1.9999999 1.9999999 0 0 1 114 186 A 1.9999999 1.9999999 0 0 1 112 184 A 1.9999999 1.9999999 0 0 1 113.95117 182 z M 120.95117 182 A 1.9999999 1.9999999 0 0 1 121 182 A 1.9999999 1.9999999 0 0 1 123 184 A 1.9999999 1.9999999 0 0 1 121 186 A 1.9999999 1.9999999 0 0 1 119 184 A 1.9999999 1.9999999 0 0 1 120.95117 182 z M 127.95117 182 A 1.9999999 1.9999999 0 0 1 128 182 A 1.9999999 1.9999999 0 0 1 130 184 A 1.9999999 1.9999999 0 0 1 128 186 A 1.9999999 1.9999999 0 0 1 126 184 A 1.9999999 1.9999999 0 0 1 127.95117 182 z M 137.86914 233.95703 A 1.9999999 1.9999999 0 0 1 139.86914 235.95703 A 1.9999999 1.9999999 0 0 1 137.86914 237.95703 A 1.9999999 1.9999999 0 0 1 135.86914 235.95703 A 1.9999999 1.9999999 0 0 1 137.86914 233.95703 z "
       transform="scale(0.26458333)" />
    <rect
       style="opacity:0.765948;fill:none;fill-opacity:1;stroke:#939393;stroke-width:0.326521;stroke-miterlimit:4;stroke-dasharray:none;stroke-opacity:1"
       id="rect5290"
       width="36.979729"
       height="59.469311"
       x="1.2244229"
       y="4.2643013" />
  </g>
  <g
     inkscape:groupmode="layer"
     id="layer3"
     inkscape:label="Components"
     style="display:inline;opacity:1"
     sodipodi:insensitive="true">
    <rect
       style="fill:#474747;fill-opacity:1;stroke-width:0.414224"
       id="rect1621"
       width="15.875"
       height="15.875"
       x="-37.041691"
       y="16.139572"
       transform="rotate(-90)" />
    <rect
       style="fill:#474747;fill-opacity:1;stroke-width:0.137384"
       id="rect1621-3"
       width="5.8208332"
       height="4.7624998"
       x="-13.75835"
       y="30.956249"
       transform="rotate(-90)" />
    <rect
       style="fill:#474747;fill-opacity:1;stroke-width:0.303158"
       id="rect1638"
       width="2.6458333"
       height="1.5875"
       x="-57.546883"
       y="8.7312508"
       transform="rotate(-90)" />
    <rect
       style="fill:#474747;fill-opacity:1;stroke-width:0.303157"
       id="rect1638-6"
       width="2.6458333"
       height="1.5875"
       x="-57.546883"
       y="11.906248"
       transform="rotate(-90)" />
    <rect
       style="fill:#474747;fill-opacity:1;stroke-width:0.303157"
       id="rect1638-6-7"
       width="2.6458333"
       height="1.5875"
       x="-57.546883"
       y="15.081247"
       transform="rotate(-90)" />
    <rect
       style="fill:#474747;fill-opacity:1;stroke-width:0.303157"
       id="rect1638-6-7-5"
       width="2.6458333"
       height="1.5875"
       x="-57.546883"
       y="18.256248"
       transform="rotate(-90)" />
    <rect
       style="fill:#474747;fill-opacity:1;stroke-width:0.303157"
       id="rect1638-6-7-5-3"
       width="2.6458333"
       height="1.5875"
       x="-57.546883"
       y="21.431252"
       transform="rotate(-90)" />
    <rect
       style="fill:#474747;fill-opacity:1;stroke-width:0.332092"
       id="rect1638-6-7-5-3-5"
       width="3.175"
       height="1.5875"
       x="-58.472923"
       y="28.839573"
       transform="rotate(-90)" />
    <rect
       style="fill:#474747;fill-opacity:1;stroke-width:0.332092"
       id="rect1638-6-7-5-3-5-6"
       width="3.175"
       height="1.5875"
       x="-53.710423"
       y="28.839573"
       transform="rotate(-90)" />
    <rect
       style="fill:#474747;fill-opacity:1;stroke-width:0.332092"
       id="rect1638-6-7-5-3-5-6-2"
       width="3.175"
       height="1.5875"
       x="-58.472923"
       y="33.602074"
       transform="rotate(-90)" />
    <rect
       style="fill:#474747;fill-opacity:1;stroke-width:0.332092"
       id="rect1638-6-7-5-3-5-6-2-9"
       width="3.175"
       height="1.5875"
       x="-53.710423"
       y="33.602074"
       transform="rotate(-90)" />
    <rect
       style="fill:#818181;fill-opacity:1;stroke-width:0.260155"
       id="rect1760"
       width="5.2916665"
       height="7.2760415"
       x="-6.3499999"
       y="16.205727"
       transform="rotate(-90)" />
    <rect
       style="fill:#474747;fill-opacity:1;stroke-width:0.332092"
       id="rect1638-6-7-5-3-5-1"
       width="3.175"
       height="1.5875"
       x="-61.647923"
       y="4.4979148"
       transform="rotate(-90)" />
    <rect
       style="fill:#474747;fill-opacity:1;stroke-width:0.332092"
       id="rect1638-6-7-5-3-5-1-2"
       width="3.175"
       height="1.5875"
       x="-56.885422"
       y="4.4979148"
       transform="rotate(-90)" />
    <rect
       style="fill:#474747;fill-opacity:1;stroke-width:0.332092"
       id="rect1638-6-7-5-3-5-1-2-7"
       width="3.175"
       height="1.5875"
       x="-52.122917"
       y="4.4979148"
       transform="rotate(-90)" />
    <rect
       style="fill:#474747;fill-opacity:1;stroke-width:0.101465"
       id="rect1621-3-0"
       width="3.175"
       height="4.7624998"
       x="-9.7895927"
       y="4.4979148"
       transform="rotate(-90)" />
    <rect
       style="fill:#474747;fill-opacity:1;stroke-width:0.103557"
       id="rect1621-3-9"
       width="3.96875"
       height="3.96875"
       x="-18.256264"
       y="7.1437488"
       transform="rotate(-90)" />
    <rect
       style="fill:#474747;fill-opacity:1;stroke-width:0.358701"
       id="rect1638-6-7-5-3-5-1-3"
       width="3.175"
       height="1.8520833"
       x="-45.243752"
       y="3.4395823"
       transform="rotate(-90)" />
    <rect
       style="fill:#474747;fill-opacity:1;stroke-width:0.358701"
       id="rect1638-6-7-5-3-5-1-2-6"
       width="3.175"
       height="1.8520833"
       x="-39.952087"
       y="3.4395823"
       transform="rotate(-90)" />
    <rect
       style="display:inline;opacity:1;fill:#474747;fill-opacity:1;stroke-width:0.303157"
       id="rect1638-8"
       width="2.6458333"
       height="1.5875"
       x="-23.547932"
       y="3.9687495"
       transform="rotate(-90)" />
    <rect
       style="fill:#5c5c5c;fill-opacity:1;stroke:none;stroke-width:0.217074;stroke-miterlimit:4;stroke-dasharray:none;stroke-opacity:1"
       id="rect2260"
       width="0.92604166"
       height="0.52916664"
       x="-53.842712"
       y="8.2020836"
       transform="rotate(-90)" />
    <rect
       style="display:inline;opacity:1;fill:#5c5c5c;fill-opacity:1;stroke:none;stroke-width:0.217074;stroke-miterlimit:4;stroke-dasharray:none;stroke-opacity:1"
       id="rect2260-3"
       width="0.92604166"
       height="0.52916664"
       x="-53.842712"
       y="9.1281242"
       transform="rotate(-90)" />
    <rect
       style="display:inline;opacity:1;fill:#5c5c5c;fill-opacity:1;stroke:none;stroke-width:0.217074;stroke-miterlimit:4;stroke-dasharray:none;stroke-opacity:1"
       id="rect2260-3-6"
       width="0.92604166"
       height="0.52916664"
       x="-53.842712"
       y="10.054167"
       transform="rotate(-90)" />
    <rect
       style="display:inline;opacity:1;fill:#5c5c5c;fill-opacity:1;stroke:none;stroke-width:0.217074;stroke-miterlimit:4;stroke-dasharray:none;stroke-opacity:1"
       id="rect2260-1"
       width="0.92604166"
       height="0.52916664"
       x="-53.842712"
       y="10.980207"
       transform="rotate(-90)" />
    <rect
       style="display:inline;opacity:1;fill:#5c5c5c;fill-opacity:1;stroke:none;stroke-width:0.217074;stroke-miterlimit:4;stroke-dasharray:none;stroke-opacity:1"
       id="rect2260-3-0"
       width="0.92604166"
       height="0.52916664"
       x="-53.842712"
       y="11.90625"
       transform="rotate(-90)" />
    <rect
       style="display:inline;opacity:1;fill:#5c5c5c;fill-opacity:1;stroke:none;stroke-width:0.217074;stroke-miterlimit:4;stroke-dasharray:none;stroke-opacity:1"
       id="rect2260-3-6-6"
       width="0.92604166"
       height="0.52916664"
       x="-53.842712"
       y="12.832291"
       transform="rotate(-90)" />
    <rect
       style="display:inline;opacity:1;fill:#5c5c5c;fill-opacity:1;stroke:none;stroke-width:0.217074;stroke-miterlimit:4;stroke-dasharray:none;stroke-opacity:1"
       id="rect2260-32"
       width="0.92604166"
       height="0.52916664"
       x="-53.842712"
       y="13.758333"
       transform="rotate(-90)" />
    <rect
       style="display:inline;opacity:1;fill:#5c5c5c;fill-opacity:1;stroke:none;stroke-width:0.217074;stroke-miterlimit:4;stroke-dasharray:none;stroke-opacity:1"
       id="rect2260-3-06"
       width="0.92604166"
       height="0.52916664"
       x="-53.842712"
       y="14.684374"
       transform="rotate(-90)" />
    <rect
       style="display:inline;opacity:1;fill:#5c5c5c;fill-opacity:1;stroke:none;stroke-width:0.217074;stroke-miterlimit:4;stroke-dasharray:none;stroke-opacity:1"
       id="rect2260-3-6-1"
       width="0.92604166"
       height="0.52916664"
       x="-53.842712"
       y="15.610415"
       transform="rotate(-90)" />
    <rect
       style="display:inline;opacity:1;fill:#5c5c5c;fill-opacity:1;stroke:none;stroke-width:0.217074;stroke-miterlimit:4;stroke-dasharray:none;stroke-opacity:1"
       id="rect2260-1-5"
       width="0.92604166"
       height="0.52916664"
       x="-53.842712"
       y="16.536457"
       transform="rotate(-90)" />
    <rect
       style="display:inline;opacity:1;fill:#5c5c5c;fill-opacity:1;stroke:none;stroke-width:0.217074;stroke-miterlimit:4;stroke-dasharray:none;stroke-opacity:1"
       id="rect2260-3-0-5"
       width="0.92604166"
       height="0.52916664"
       x="-53.842712"
       y="17.462498"
       transform="rotate(-90)" />
    <rect
       style="display:inline;opacity:1;fill:#5c5c5c;fill-opacity:1;stroke:none;stroke-width:0.217074;stroke-miterlimit:4;stroke-dasharray:none;stroke-opacity:1"
       id="rect2260-3-6-6-4"
       width="0.92604166"
       height="0.52916664"
       x="-53.842712"
       y="18.388538"
       transform="rotate(-90)" />
    <rect
       style="display:inline;opacity:1;fill:#5c5c5c;fill-opacity:1;stroke:none;stroke-width:0.217074;stroke-miterlimit:4;stroke-dasharray:none;stroke-opacity:1"
       id="rect2260-3-6-1-7"
       width="0.92604166"
       height="0.52916664"
       x="-53.842712"
       y="19.314579"
       transform="rotate(-90)" />
    <rect
       style="display:inline;opacity:1;fill:#5c5c5c;fill-opacity:1;stroke:none;stroke-width:0.217074;stroke-miterlimit:4;stroke-dasharray:none;stroke-opacity:1"
       id="rect2260-1-5-6"
       width="0.92604166"
       height="0.52916664"
       x="-53.842712"
       y="20.240623"
       transform="rotate(-90)" />
    <rect
       style="display:inline;opacity:1;fill:#5c5c5c;fill-opacity:1;stroke:none;stroke-width:0.217074;stroke-miterlimit:4;stroke-dasharray:none;stroke-opacity:1"
       id="rect2260-3-0-5-5"
       width="0.92604166"
       height="0.52916664"
       x="-53.842712"
       y="21.166664"
       transform="rotate(-90)" />
    <rect
       style="display:inline;opacity:1;fill:#5c5c5c;fill-opacity:1;stroke:none;stroke-width:0.217074;stroke-miterlimit:4;stroke-dasharray:none;stroke-opacity:1"
       id="rect2260-3-6-6-4-6"
       width="0.92604166"
       height="0.52916664"
       x="-53.842712"
       y="22.092705"
       transform="rotate(-90)" />
    <rect
       style="fill:#7bcd8b;fill-opacity:1;stroke:#6baa78;stroke-width:0.132292;stroke-miterlimit:4;stroke-dasharray:none;stroke-opacity:1"
       id="rect2367"
       width="1.0583333"
       height="1.5875"
       x="-28.839603"
       y="3.4395823"
       transform="rotate(-90)" />
    <rect
       style="display:inline;opacity:1;fill:#c09965;fill-opacity:1;stroke:#9e753d;stroke-width:0.132292;stroke-miterlimit:4;stroke-dasharray:none;stroke-opacity:1"
       id="rect2367-9"
       width="1.0583333"
       height="1.5875"
       x="-32.014606"
       y="3.4395823"
       transform="rotate(-90)" />
    <rect
       style="fill:#5a5a5a;fill-opacity:1;stroke:none;stroke-width:0.307602;stroke-miterlimit:4;stroke-dasharray:none;stroke-opacity:1"
       id="rect2402"
       width="1.5875"
       height="0.79374999"
       x="-3.704164"
       y="16.734894"
       transform="rotate(-90)" />
    <rect
       style="display:inline;opacity:1;fill:#5a5a5a;fill-opacity:1;stroke:none;stroke-width:0.307602;stroke-miterlimit:4;stroke-dasharray:none;stroke-opacity:1"
       id="rect2402-4"
       width="1.5875"
       height="0.79374999"
       x="-3.7041717"
       y="22.158848"
       inkscape:transform-center-x="6.5054573"
       inkscape:transform-center-y="2.681753"
       transform="rotate(-90)" />
    <rect
       style="display:inline;opacity:1;fill:#5a5a5a;fill-opacity:1;stroke:none;stroke-width:0.198556;stroke-miterlimit:4;stroke-dasharray:none;stroke-opacity:1"
       id="rect2402-4-5"
       width="0.66145831"
       height="0.79374999"
       x="-6.4822936"
       y="21.100513"
       inkscape:transform-center-x="6.5054573"
       inkscape:transform-center-y="1.1173971"
       transform="rotate(-90)" />
    <rect
       style="display:inline;opacity:1;fill:#5a5a5a;fill-opacity:1;stroke:none;stroke-width:0.198556;stroke-miterlimit:4;stroke-dasharray:none;stroke-opacity:1"
       id="rect2402-4-5-2"
       width="0.66145831"
       height="0.79374999"
       x="-6.4822936"
       y="17.793228"
       inkscape:transform-center-x="6.5054554"
       inkscape:transform-center-y="1.1173971"
       transform="rotate(-90)" />
    <rect
       style="fill:#5a5a5a;fill-opacity:1;stroke:none;stroke-width:0.0830878;stroke-miterlimit:4;stroke-dasharray:none;stroke-opacity:1"
       id="rect2458"
       width="1.3229166"
       height="0.79374999"
       x="-15.610435"
       y="26.458328"
       transform="rotate(-90)" />
    <rect
       style="display:inline;opacity:1;fill:#5a5a5a;fill-opacity:1;stroke:none;stroke-width:0.0830879;stroke-miterlimit:4;stroke-dasharray:none;stroke-opacity:1"
       id="rect2458-5"
       width="1.3229166"
       height="0.79374999"
       x="-15.610435"
       y="24.606243"
       transform="rotate(-90)" />
    <rect
       style="display:inline;opacity:1;fill:#5a5a5a;fill-opacity:1;stroke:none;stroke-width:0.0941256;stroke-miterlimit:4;stroke-dasharray:none;stroke-opacity:1"
       id="rect2458-5-4"
       width="1.4552083"
       height="0.92604166"
       x="-12.170849"
       y="24.606243"
       transform="rotate(-90)" />
    <rect
       style="display:inline;opacity:1;fill:#474747;fill-opacity:1;stroke-width:0.0771869"
       id="rect1621-3-9-7"
       width="3.3072917"
       height="2.6458333"
       x="-12.964588"
       y="15.345831"
       transform="rotate(-90)" />
    <rect
       style="display:inline;opacity:1;fill:#5a5a5a;fill-opacity:1;stroke:none;stroke-width:0.0941255;stroke-miterlimit:4;stroke-dasharray:none;stroke-opacity:1"
       id="rect2458-5-4-4"
       width="1.4552083"
       height="0.92604166"
       x="31.485409"
       y="59.531258" />
    <rect
       style="display:inline;opacity:1;fill:#5a5a5a;fill-opacity:1;stroke:none;stroke-width:0.0941255;stroke-miterlimit:4;stroke-dasharray:none;stroke-opacity:1"
       id="rect2458-5-4-4-4"
       width="1.4552083"
       height="0.92604166"
       x="34.528118"
       y="59.531258" />
    <rect
       style="display:inline;opacity:1;fill:#5a5a5a;fill-opacity:1;stroke:none;stroke-width:0.067841;stroke-miterlimit:4;stroke-dasharray:none;stroke-opacity:1"
       id="rect2458-5-3"
       width="1.0583333"
       height="0.66145831"
       x="-59.663548"
       y="10.318748"
       transform="rotate(-90)" />
    <rect
       style="display:inline;opacity:1;fill:#5a5a5a;fill-opacity:1;stroke:none;stroke-width:0.067841;stroke-miterlimit:4;stroke-dasharray:none;stroke-opacity:1"
       id="rect2458-5-3-0"
       width="1.0583333"
       height="0.66145831"
       x="-59.663548"
       y="12.567705"
       transform="rotate(-90)" />
    <rect
       style="display:inline;opacity:1;fill:#5a5a5a;fill-opacity:1;stroke:none;stroke-width:0.067841;stroke-miterlimit:4;stroke-dasharray:none;stroke-opacity:1"
       id="rect2458-5-3-0-7"
       width="1.0583333"
       height="0.66145831"
       x="-59.663548"
       y="14.816662"
       transform="rotate(-90)" />
    <rect
       style="display:inline;opacity:1;fill:#5a5a5a;fill-opacity:1;stroke:none;stroke-width:0.067841;stroke-miterlimit:4;stroke-dasharray:none;stroke-opacity:1"
       id="rect2458-5-3-0-8"
       width="1.0583333"
       height="0.66145831"
       x="-59.663548"
       y="18.653122"
       transform="rotate(-90)" />
    <rect
       style="display:inline;opacity:1;fill:#5a5a5a;fill-opacity:1;stroke:none;stroke-width:0.067841;stroke-miterlimit:4;stroke-dasharray:none;stroke-opacity:1"
       id="rect2458-5-3-0-7-6"
       width="1.0583333"
       height="0.66145831"
       x="-59.663548"
       y="20.902077"
       transform="rotate(-90)" />
    <rect
       style="display:inline;opacity:1;fill:#6a6a6a;fill-opacity:1;stroke:none;stroke-width:0.162121;stroke-miterlimit:4;stroke-dasharray:none;stroke-opacity:1"
       id="rect2402-4-5-8"
       width="0.26458332"
       height="1.3229166"
       x="-6.4161544"
       y="19.182289"
       inkscape:transform-center-x="10.842426"
       inkscape:transform-center-y="0.44695878"
       transform="rotate(-90)" />
    <rect
       style="display:inline;opacity:1;fill:#5a5a5a;fill-opacity:1;stroke:none;stroke-width:0.0941255;stroke-miterlimit:4;stroke-dasharray:none;stroke-opacity:1"
       id="rect2458-5-4-8"
       width="1.4552083"
       height="0.92604166"
       x="-8.0697947"
       y="11.906246"
       transform="rotate(-90)" />
    <rect
       style="display:inline;opacity:1;fill:#5a5a5a;fill-opacity:1;stroke:none;stroke-width:0.067841;stroke-miterlimit:4;stroke-dasharray:none;stroke-opacity:1"
       id="rect2458-5-3-0-7-4"
       width="1.0583333"
       height="0.66145831"
       x="14.816664"
       y="15.610425" />
    <rect
       style="display:inline;opacity:1;fill:#5a5a5a;fill-opacity:1;stroke:none;stroke-width:0.067841;stroke-miterlimit:4;stroke-dasharray:none;stroke-opacity:1"
       id="rect2458-5-3-0-7-4-3"
       width="1.0583333"
       height="0.66145831"
       x="17.197929"
       y="-13.758331"
       transform="rotate(90)" />
    <rect
       style="display:inline;opacity:1;fill:#5a5a5a;fill-opacity:1;stroke:none;stroke-width:0.067841;stroke-miterlimit:4;stroke-dasharray:none;stroke-opacity:1"
       id="rect2458-5-3-0-7-4-3-1"
       width="1.0583333"
       height="0.66145831"
       x="15.610425"
       y="-6.0854163"
       transform="rotate(90)" />
    <rect
       style="display:inline;opacity:1;fill:#5c5c5c;fill-opacity:1;stroke:none;stroke-width:0.217074;stroke-miterlimit:4;stroke-dasharray:none;stroke-opacity:1"
       id="rect2260-4"
       width="0.92604166"
       height="0.52916664"
       x="3.9687495"
       y="47.360416" />
    <rect
       style="display:inline;opacity:1;fill:#5c5c5c;fill-opacity:1;stroke:none;stroke-width:0.217074;stroke-miterlimit:4;stroke-dasharray:none;stroke-opacity:1"
       id="rect2260-4-9"
       width="0.92604166"
       height="0.52916664"
       x="3.9687495"
       y="46.566669" />
    <rect
       style="display:inline;opacity:1;fill:#5c5c5c;fill-opacity:1;stroke:none;stroke-width:0.217074;stroke-miterlimit:4;stroke-dasharray:none;stroke-opacity:1"
       id="rect2260-4-9-2"
       width="0.92604166"
       height="0.52916664"
       x="3.4395823"
       y="32.676048" />
    <rect
       style="display:inline;opacity:1;fill:#5c5c5c;fill-opacity:1;stroke:none;stroke-width:0.217074;stroke-miterlimit:4;stroke-dasharray:none;stroke-opacity:1"
       id="rect2260-4-9-2-0"
       width="0.92604166"
       height="0.52916664"
       x="3.4395823"
       y="29.633339" />
    <rect
       style="display:inline;fill:#474747;fill-opacity:1;stroke-width:0.289355"
       id="rect1616"
       width="9.260417"
       height="21.166666"
       x="-71.040627"
       y="9.260416"
       transform="rotate(-90)" />
  </g>
  <g
     inkscape:groupmode="layer"
     id="layer4"
     inkscape:label="Holes"
     style="display:inline"
     sodipodi:insensitive="true">
    <ellipse
       style="display:inline;opacity:1;fill:none;fill-opacity:1;stroke:#795000;stroke-width:0.305329;stroke-miterlimit:4;stroke-dasharray:none;stroke-opacity:1"
       id="path1876"
       cx="-34.726574"
       cy="36.44635"
       ry="0.50881416"
       rx="0.5088141"
       transform="rotate(-90)" />
    <ellipse
       style="display:inline;opacity:1;fill:none;fill-opacity:1;stroke:#795000;stroke-width:0.305329;stroke-miterlimit:4;stroke-dasharray:none;stroke-opacity:1"
       id="path1876-6"
       cx="-32.874493"
       cy="36.44635"
       ry="0.5088141"
       rx="0.50881416"
       transform="rotate(-90)" />
    <ellipse
       style="display:inline;opacity:1;fill:none;fill-opacity:1;stroke:#795000;stroke-width:0.305329;stroke-miterlimit:4;stroke-dasharray:none;stroke-opacity:1"
       id="path1876-6-2"
       cx="-31.022408"
       cy="36.44635"
       ry="0.50881416"
       rx="0.5088141"
       transform="rotate(-90)" />
    <ellipse
       style="display:inline;opacity:1;fill:none;fill-opacity:1;stroke:#795000;stroke-width:0.305329;stroke-miterlimit:4;stroke-dasharray:none;stroke-opacity:1"
       id="path1876-6-2-6"
       cx="-29.170326"
       cy="36.44635"
       ry="0.50881416"
       rx="0.5088141"
       transform="rotate(-90)" />
    <ellipse
       style="display:inline;opacity:1;fill:none;fill-opacity:1;stroke:#795000;stroke-width:0.305329;stroke-miterlimit:4;stroke-dasharray:none;stroke-opacity:1"
       id="path1876-2"
       cx="-27.318241"
       cy="36.497143"
       ry="0.50881416"
       rx="0.5088141"
       transform="rotate(-90)" />
    <ellipse
       style="display:inline;opacity:1;fill:none;fill-opacity:1;stroke:#795000;stroke-width:0.305329;stroke-miterlimit:4;stroke-dasharray:none;stroke-opacity:1"
       id="path1876-6-0"
       cx="-25.466156"
       cy="36.497143"
       ry="0.50881416"
       rx="0.5088141"
       transform="rotate(-90)" />
    <ellipse
       style="display:inline;opacity:1;fill:none;fill-opacity:1;stroke:#795000;stroke-width:0.305329;stroke-miterlimit:4;stroke-dasharray:none;stroke-opacity:1"
       id="path1876-6-2-2"
       cx="-23.614071"
       cy="36.497143"
       ry="0.50881416"
       rx="0.5088141"
       transform="rotate(-90)" />
    <ellipse
       style="display:inline;opacity:1;fill:none;fill-opacity:1;stroke:#795000;stroke-width:0.305329;stroke-miterlimit:4;stroke-dasharray:none;stroke-opacity:1"
       id="path1876-6-2-6-3"
       cx="-21.76199"
       cy="36.497143"
       ry="0.50881416"
       rx="0.5088141"
       transform="rotate(-90)" />
    <ellipse
       style="display:inline;opacity:1;fill:none;fill-opacity:1;stroke:#795000;stroke-width:0.317594;stroke-miterlimit:4;stroke-dasharray:none;stroke-opacity:1"
       id="path2085"
       cx="-62.43055"
       cy="36.478004"
       rx="0.6349532"
       ry="0.63495314"
       transform="rotate(-90)" />
    <ellipse
       style="display:inline;opacity:1;fill:none;fill-opacity:1;stroke:#795000;stroke-width:0.317595;stroke-miterlimit:4;stroke-dasharray:none;stroke-opacity:1"
       id="path2085-2"
       cx="-18.485138"
       cy="3.6342921"
       rx="0.6349532"
       ry="0.63495314"
       transform="rotate(-90)" />
    <ellipse
       style="display:inline;opacity:1;fill:none;fill-opacity:1;stroke:#795000;stroke-width:0.317595;stroke-miterlimit:4;stroke-dasharray:none;stroke-opacity:1"
       id="path2085-2-9"
       cx="-12.700008"
       cy="5.2916656"
       rx="0.6349532"
       ry="0.63495314"
       transform="rotate(-90)" />
    <ellipse
       style="display:inline;opacity:1;fill:none;fill-opacity:1;stroke:#795000;stroke-width:0.317595;stroke-miterlimit:4;stroke-dasharray:none;stroke-opacity:1"
       id="path2085-2-3"
       cx="-48.683334"
       cy="26.458332"
       rx="0.6349532"
       ry="0.63495314"
       transform="rotate(-90)" />
    <ellipse
       style="display:inline;opacity:1;fill:none;fill-opacity:1;stroke:#795000;stroke-width:0.317595;stroke-miterlimit:4;stroke-dasharray:none;stroke-opacity:1"
       id="path2085-2-3-1"
       cx="-48.683334"
       cy="28.310413"
       rx="0.6349532"
       ry="0.63495314"
       transform="rotate(-90)" />
    <ellipse
       style="display:inline;opacity:1;fill:none;fill-opacity:1;stroke:#795000;stroke-width:0.317595;stroke-miterlimit:4;stroke-dasharray:none;stroke-opacity:1"
       id="path2085-2-3-9"
       cx="-48.683334"
       cy="30.162498"
       rx="0.6349532"
       ry="0.63495314"
       transform="rotate(-90)" />
    <ellipse
       style="display:inline;opacity:1;fill:none;fill-opacity:1;stroke:#795000;stroke-width:0.317595;stroke-miterlimit:4;stroke-dasharray:none;stroke-opacity:1"
       id="path2085-2-3-1-4"
       cx="-48.683334"
       cy="32.01458"
       rx="0.6349532"
       ry="0.63495314"
       transform="rotate(-90)" />
    <ellipse
       style="display:inline;opacity:1;fill:none;fill-opacity:1;stroke:#795000;stroke-width:0.317595;stroke-miterlimit:4;stroke-dasharray:none;stroke-opacity:1"
       id="path2085-2-3-1-4-7"
       cx="-48.683334"
       cy="33.866665"
       rx="0.6349532"
       ry="0.63495314"
       transform="rotate(-90)" />
    <ellipse
       style="display:inline;opacity:1;fill:none;fill-opacity:1;stroke:#795000;stroke-width:0.317595;stroke-miterlimit:4;stroke-dasharray:none;stroke-opacity:1"
       id="path2085-2-9-4"
       cx="-12.700008"
       cy="13.229164"
       rx="0.6349532"
       ry="0.63495314"
       transform="rotate(-90)" />
    <ellipse
       style="display:inline;opacity:1;fill:none;fill-opacity:1;stroke:#795000;stroke-width:0.317595;stroke-miterlimit:4;stroke-dasharray:none;stroke-opacity:1"
       id="path2085-5"
       cx="-37.306255"
       cy="36.44635"
       rx="0.6349532"
       ry="0.63495314"
       transform="rotate(-90)" />
    <ellipse
       style="display:inline;opacity:1;fill:none;fill-opacity:1;stroke:#795000;stroke-width:0.3175;stroke-miterlimit:3.4;stroke-dasharray:none;stroke-opacity:1"
       id="path2085-5-0"
       cx="-39.422924"
       cy="36.44635"
       rx="0.6349532"
       ry="0.63495314"
       transform="rotate(-90)" />
    <ellipse
       style="display:inline;opacity:1;fill:none;fill-opacity:1;stroke:#795000;stroke-width:0.317595;stroke-miterlimit:4;stroke-dasharray:none;stroke-opacity:1"
       id="path2085-5-3"
       cx="-17.197926"
       cy="36.44635"
       rx="0.6349532"
       ry="0.63495314"
       transform="rotate(-90)" />
    <ellipse
       style="display:inline;opacity:1;fill:none;fill-opacity:1;stroke:#795000;stroke-width:0.317595;stroke-miterlimit:4;stroke-dasharray:none;stroke-opacity:1"
       id="path2085-5-0-7"
       cx="-19.314594"
       cy="36.44635"
       rx="0.6349532"
       ry="0.63495314"
       transform="rotate(-90)" />
  </g>
</svg>
